Coordinates
version=1
nRows=13
nColumns=38
inDegrees=no

Units are S.I. units (second, meters, Newtons, ...)
If the header above contains a line with 'inDegrees', this indicates whether rotational values are in degrees (yes) or radians (no).

endheader
time	pelvis_tilt	pelvis_list	pelvis_rotation	pelvis_tx	pelvis_ty	pelvis_tz	hip_flexion_r	hip_adduction_r	hip_rotation_r	knee_angle_r	ankle_angle_r	subtalar_angle_r	mtp_angle_r	hip_flexion_l	hip_adduction_l	hip_rotation_l	knee_angle_l	ankle_angle_l	subtalar_angle_l	mtp_angle_l	lumbar_extension	lumbar_bending	lumbar_rotation	arm_flex_r	arm_add_r	arm_rot_r	elbow_flex_r	pro_sup_r	wrist_flex_r	wrist_dev_r	arm_flex_l	arm_add_l	arm_rot_l	elbow_flex_l	pro_sup_l	wrist_flex_l	wrist_dev_l
44.07	-2.78698	1.46518	-1.64489	0.577377	0.214948	0.924008	0.0670792	-0.0579536	-0.232258	0.447892	0.202404	0	0	0.120679	-0.113624	-0.264074	0.532545	0.218043	0	0	-0.446435	0.103471	-0.0594653	0.205665	-0.24999	0.382768	0.311023	0.860791	0	0	0.0638851	-0.340562	0.427838	0.797072	1.05978	0	0
44.08	-2.80064	1.46566	-1.63661	0.57787	0.213415	0.922687	0.0908835	-0.0549828	-0.211257	0.48074	0.201219	0	0	0.129693	-0.116534	-0.263807	0.547935	0.223231	0	0	-0.455615	0.105645	-0.05293	0.21421	-0.252636	0.382661	0.312244	0.861209	0	0	0.0680756	-0.338858	0.428295	0.795778	1.06002	0	0
44.09	-2.74034	1.46649	-1.69897	0.578309	0.212884	0.920315	0.0884879	-0.0518264	-0.200226	0.46369	0.199463	0	0	0.13948	-0.112026	-0.264189	0.564561	0.231189	0	0	-0.459457	0.0997531	-0.0524567	0.219498	-0.247282	0.345888	0.306877	0.919175	0	0	0.0681263	-0.342456	0.431996	0.797937	1.05965	0	0
44.1	-2.81182	1.46405	-1.63343	0.578695	0.210852	0.91987	0.108905	-0.0566457	-0.202093	0.509433	0.21092	0	0	0.145102	-0.120993	-0.263294	0.579583	0.23544	0	0	-0.474353	0.108901	-0.044424	0.231431	-0.253817	0.368559	0.310235	0.882437	0	0	0.0744335	-0.337072	0.430189	0.791514	1.06382	0	0
44.11	-2.81615	1.46347	-1.63212	0.578961	0.209603	0.918359	0.118558	-0.0582888	-0.199874	0.526806	0.218226	0	0	0.153364	-0.122498	-0.260859	0.595202	0.240782	0	0	-0.483245	0.110525	-0.0413393	0.239517	-0.254597	0.364968	0.310458	0.884663	0	0	0.0772133	-0.336235	0.430482	0.790159	1.06431	0	0
44.12	-2.82173	1.46186	-1.62793	0.579014	0.208515	0.916911	0.125398	-0.0595474	-0.198042	0.541913	0.225122	0	0	0.160353	-0.123616	-0.25695	0.61011	0.245927	0	0	-0.492701	0.112745	-0.0396164	0.247043	-0.255674	0.36394	0.311268	0.886116	0	0	0.0797312	-0.33538	0.430584	0.788724	1.06502	0	0
44.13	-2.82741	1.45955	-1.62318	0.578992	0.207466	0.915529	0.13083	-0.0604984	-0.1956	0.555409	0.230672	0	0	0.166132	-0.124318	-0.252517	0.62402	0.250895	0	0	-0.502839	0.115078	-0.0380902	0.254448	-0.256939	0.363651	0.312223	0.888451	0	0	0.0824102	-0.334475	0.431453	0.786212	1.06693	0	0
44.14	-2.79781	1.45945	-1.65287	0.579085	0.206776	0.913378	0.135178	-0.0603071	-0.192369	0.555833	0.231667	0	0	0.174995	-0.121388	-0.248391	0.639851	0.257838	0	0	-0.508584	0.112985	-0.0390087	0.25955	-0.25603	0.360192	0.312812	0.891661	0	0	0.0832593	-0.335921	0.432911	0.785199	1.06972	0	0
44.15	-2.83632	1.45601	-1.61604	0.578977	0.205326	0.912512	0.144996	-0.0627854	-0.189826	0.585382	0.241937	0	0	0.179279	-0.12525	-0.242761	0.652932	0.262093	0	0	-0.521986	0.119376	-0.0351743	0.268639	-0.258412	0.359309	0.3139	0.892766	0	0	0.0880468	-0.332532	0.433052	0.780529	1.07085	0	0
44.16	-2.84298	1.45337	-1.60998	0.578917	0.204279	0.911098	0.149998	-0.0636322	-0.187836	0.598832	0.247581	0	0	0.184583	-0.125604	-0.237262	0.666541	0.267123	0	0	-0.5325	0.122031	-0.0339778	0.27604	-0.259342	0.359341	0.314539	0.893434	0	0	0.0908465	-0.331259	0.433112	0.777888	1.07127	0	0
44.17	-2.85014	1.45045	-1.60328	0.578841	0.203233	0.909728	0.154251	-0.0643074	-0.185968	0.611627	0.253131	0	0	0.189496	-0.125839	-0.231445	0.679872	0.271996	0	0	-0.543525	0.124962	-0.0326563	0.283623	-0.260283	0.360084	0.314763	0.89413	0	0	0.0938936	-0.329742	0.432701	0.775364	1.07132	0	0
44.18	-2.85405	1.44733	-1.6	0.578806	0.202204	0.908346	0.158807	-0.0653961	-0.183795	0.625018	0.258427	0	0	0.194077	-0.12558	-0.225505	0.693149	0.277038	0	0	-0.554809	0.127382	-0.03104	0.291055	-0.260988	0.36051	0.314675	0.894588	0	0	0.0972816	-0.3285	0.432974	0.773048	1.07144	0	0
44.19	-2.85524	1.44426	-1.59967	0.57881	0.201235	0.906895	0.163811	-0.0665974	-0.181074	0.638865	0.263808	0	0	0.198495	-0.125085	-0.219957	0.706357	0.282447	0	0	-0.565945	0.128936	-0.0291617	0.298007	-0.261462	0.359875	0.314745	0.894667	0	0	0.100793	-0.327844	0.435197	0.770249	1.07202	0	0
